<?xml version="1.0" encoding="UTF-8" standalone="no"?>
<!-- Created with Inkscape (http://www.inkscape.org/) -->

<svg
   width="13.982495mm"
   height="22.746862mm"
   viewBox="0 0 13.982495 22.746862"
   version="1.1"
   id="svg5"
   xml:space="preserve"
   sodipodi:docname="logo-icon-white.svg"
   inkscape:version="1.2.2 (b0a8486541, 2022-12-01)"
   xmlns:inkscape="http://www.inkscape.org/namespaces/inkscape"
   xmlns:sodipodi="http://sodipodi.sourceforge.net/DTD/sodipodi-0.dtd"
   xmlns="http://www.w3.org/2000/svg"
   xmlns:svg="http://www.w3.org/2000/svg"><sodipodi:namedview
     id="namedview2686"
     pagecolor="#ffffff"
     bordercolor="#000000"
     borderopacity="0.25"
     inkscape:showpageshadow="2"
     inkscape:pageopacity="0.0"
     inkscape:pagecheckerboard="0"
     inkscape:deskcolor="#d1d1d1"
     inkscape:document-units="mm"
     showgrid="false"
     inkscape:zoom="3.9408307"
     inkscape:cx="62.930894"
     inkscape:cy="42.630606"
     inkscape:window-width="1920"
     inkscape:window-height="1043"
     inkscape:window-x="0"
     inkscape:window-y="0"
     inkscape:window-maximized="1"
     inkscape:current-layer="svg5" /><defs
     id="defs2" /><g
     id="g4474"
     transform="translate(-7.7101775,-1.5265175)"><path
       style="fill:#ffffff;stroke-width:0.0850502"
       d="m 13.375903,23.264023 v 0.947027 c 0,0.03324 0.0317,0.06233 0.07241,0.06233 h 2.508373 c 0.03845,0 0.07008,-0.02719 0.07008,-0.06233 v -0.947027 z"
       id="path557" /><path
       style="fill:#ffffff;stroke-width:0.0850502"
       d="m 10.177778,20.706152 v 1.325776 h 0.0023 c 0,0.302644 0.285005,0.548674 0.635588,0.548674 h 2.162239 3.442339 2.162422 c 0.350574,0 0.635405,-0.24603 0.635405,-0.548674 v -1.325776 z"
       id="path555" /><path
       style="fill:#ffffff;stroke-width:0.0850502"
       d="m 8.3457565,18.146426 c -0.350574,0 -0.635579,0.246039 -0.635579,0.548674 v 0.777102 c 0,0.302643 0.285005,0.548682 0.635579,0.548682 h 1.438517 9.8319785 1.438508 c 0.350583,0 0.635588,-0.246039 0.635588,-0.548682 V 18.6951 c 0,-0.302635 -0.285005,-0.548674 -0.635588,-0.548674 h -4.63449 -3.44234 z"
       id="path553" /><path
       style="fill:#ffffff;stroke-width:0.0850502"
       d="m 13.375903,8.3369074 v 9.1261066 h 2.650861 V 8.3369074 Z"
       id="path551" /><path
       style="fill:#ffffff;stroke-width:0.0850502"
       d="m 8.3457565,5.7790369 c -0.350574,0 -0.635579,0.2460305 -0.635579,0.5486738 v 0.7771022 c 0,0.3026433 0.285005,0.5486738 0.635579,0.5486738 h 4.6343155 3.442523 4.63449 c 0.350583,0 0.635588,-0.2460305 0.635588,-0.5486738 V 6.3277107 c 0,-0.3026433 -0.285005,-0.5486738 -0.635588,-0.5486738 H 19.618577 9.7864155 Z"
       id="path549" /><path
       style="fill:#ffffff;stroke-width:0.0850502"
       d="m 10.815692,3.2193104 c -0.350584,0 -0.635588,0.2460391 -0.635588,0.5486824 v 1.325776 h 9.040317 v -1.325776 c 0,-0.3026433 -0.285004,-0.5486824 -0.635588,-0.5486824 h -2.162238 -3.442523 z"
       id="path547" /><path
       style="fill:#ffffff;stroke-width:0.0850502"
       d="m 13.445985,1.5265175 c -0.03845,0 -0.07222,0.027365 -0.07222,0.0625 v 0.9468718 h 2.650678 V 1.5890179 c 0,-0.033236 -0.03163,-0.0625 -0.07008,-0.0625 z"
       id="path545" /></g></svg>
