<svg
  width="13.982496mm"
  height="19.972691mm"
  viewBox="0 0 13.982496 19.972691"
  version="1.1"
  id="svg5"
  xml:space="preserve"
  xmlns="http://www.w3.org/2000/svg"
  xmlns:svg="http://www.w3.org/2000/svg">
  <g
 
     transform="translate(-103.57249,-93.880956)"><g
       id="g150"
       transform="matrix(0.26458333,0,0,0.26458333,297.06737,132.07691)"><g
         id="g134"
         transform="matrix(0,-2.4708716,-2.4708716,0,-632.56753,128.29836)"
         style="fill:#0000ff" /><g
         id="g566"
         transform="matrix(0.34597206,0,0,0.2622404,-660.63129,-15.471421)"
         style="fill:#fd3d0d;fill-opacity:1"><path
           style="fill:#fd3d0d;fill-opacity:1"
           d="m -142.4224,-216.41829 v 11.98437 c 0,0.42005 0.3463,0.78907 0.791,0.78907 h 27.4024 c 0.42,0 0.7656,-0.34431 0.7656,-0.78907 v -11.98437 z"
           id="path557" /><path
           style="fill:#fd3d0d;fill-opacity:1"
           d="m -177.3599,-248.78743 v 16.77734 h 0.025 c 0,3.82985 3.1135,6.94336 6.9434,6.94336 h 23.6211 37.6054 23.623099 c 3.8298,0 6.9414,-3.11351 6.9414,-6.94336 v -16.77734 z"
           id="path555" /><path
           style="fill:#fd3d0d;fill-opacity:1"
           d="m -197.3736,-281.18001 c -3.8298,0 -6.9433,3.11351 -6.9433,6.94336 v 9.83398 c 0,3.82985 3.1135,6.94336 6.9433,6.94336 h 15.7149 107.408199 15.7148 c 3.8299,0 6.9434,-3.11351 6.9434,-6.94336 v -9.83398 c 0,-3.82985 -3.1135,-6.94336 -6.9434,-6.94336 H -109.1646 -146.77 Z"
           id="path553" /><path
           style="fill:#fd3d0d;fill-opacity:1"
           d="m -142.4224,-405.31673 v 115.48828 h 28.959 v -115.48828 z"
           id="path551" /><path
           style="fill:#fd3d0d;fill-opacity:1"
           d="m -197.3736,-437.68587 c -3.8298,0 -6.9433,3.11351 -6.9433,6.94336 v 9.83398 c 0,3.82985 3.1135,6.94336 6.9433,6.94336 h 50.627 37.6074 50.628899 c 3.8299,0 6.9434,-3.11351 6.9434,-6.94336 v -9.83398 c 0,-3.82985 -3.1135,-6.94336 -6.9434,-6.94336 h -15.7148 -107.410199 z"
           id="path549" /><path
           style="fill:#fd3d0d;fill-opacity:1"
           d="m -170.3911,-470.07845 c -3.8299,0 -6.9434,3.11351 -6.9434,6.94336 v 16.77734 h 98.759799 v -16.77734 c 0,-3.82985 -3.1135,-6.94336 -6.9434,-6.94336 h -23.621099 -37.6074 z"
           id="path547" /><path
           style="fill:#fd3d0d;fill-opacity:1"
           d="m -141.6568,-491.50033 c -0.42,0 -0.789,0.34626 -0.789,0.79102 v 11.98242 h 28.957 v -11.98242 c 0,-0.42005 -0.3456,-0.79102 -0.7656,-0.79102 z"
           id="path545" /></g></g></g></svg>