<?xml version="1.0" encoding="UTF-8" standalone="no"?>
<svg
   version="1.1"
   x="0px"
   y="0px"
   viewBox="0 0 75.379997 89.839996"
   xml:space="preserve"
   id="svg52"
   sodipodi:docname="noun-gym-class-signup-4813866.svg"
   width="75.379997"
   height="89.839996"
   inkscape:version="1.2.2 (b0a8486541, 2022-12-01)"
   xmlns:inkscape="http://www.inkscape.org/namespaces/inkscape"
   xmlns:sodipodi="http://sodipodi.sourceforge.net/DTD/sodipodi-0.dtd"
   xmlns:xlink="http://www.w3.org/1999/xlink"
   xmlns="http://www.w3.org/2000/svg"
   xmlns:svg="http://www.w3.org/2000/svg"><defs
     id="defs56" /><sodipodi:namedview
     id="namedview54"
     pagecolor="#ffffff"
     bordercolor="#000000"
     borderopacity="0.25"
     inkscape:showpageshadow="2"
     inkscape:pageopacity="0.0"
     inkscape:pagecheckerboard="0"
     inkscape:deskcolor="#d1d1d1"
     showgrid="false"
     inkscape:zoom="6.672"
     inkscape:cx="37.844724"
     inkscape:cy="45.638489"
     inkscape:window-width="1920"
     inkscape:window-height="1014"
     inkscape:window-x="0"
     inkscape:window-y="0"
     inkscape:window-maximized="1"
     inkscape:current-layer="svg52" /><style
     type="text/css"
     id="style2">
	.st0{clip-path:url(#d);fill:none;}
	.st1{clip-path:url(#c);fill:none;}
</style><g
     id="g46"
     transform="translate(-12.31,-5.08)"><path
       d="M 68.97,19.43 H 57.86 v 1.8 c 0,0.37 -0.3,0.68 -0.68,0.68 h -8.97 c -0.37,0 -0.68,-0.3 -0.68,-0.68 v -1.8 h -12.1 c -1.61,0 -2.92,1.31 -2.92,2.92 v 49.21 c 0,1.61 1.31,2.92 2.92,2.92 h 34.55 c 1.61,0 2.92,-1.31 2.92,-2.92 V 24.97 l -3.98,4.71 V 69.05 H 36.5 V 24.86 h 27.88 l 4.59,-5.43"
       id="path4" /><g
       id="g16"><defs
         id="defs7"><polyline
           id="b"
           points="36.5,13.01 79.42,13.01 79.42,69.05 36.5,69.05 36.5,13.01    " /></defs><clipPath
         id="d"><use
           xlink:href="#b"
           overflow="visible"
           id="use9" /></clipPath><polyline
         class="st0"
         points="64.38,24.86 36.5,24.86 36.5,69.05 68.91,69.05 68.91,29.67 64.06,35.4 59.29,35.96 59.05,31.16     64.38,24.86   "
         clip-path="url(#d)"
         id="polyline12" /><path
         class="st0"
         d="m 69.98,19.43 h -1 l -4.6,5.43 -5.33,6.3 5.01,4.24 4.85,-5.73 3.98,-4.71 v -2.62 c 0,-1.6 -1.3,-2.91 -2.91,-2.91"
         clip-path="url(#d)"
         id="path14" /></g><polygon
       points="40.22,12.77 38.09,6.54 31.76,5.38 27.56,10.45 28.96,14.55 24.13,20.35 18.02,19.23 12.61,25.76 15.36,33.78 23.51,35.28 28.91,28.75 26.81,22.58 26.81,22.58 31.45,17.01 36.02,17.85 "
       id="polygon18" /><polygon
       points="36.13,18.14 40.53,12.83 38.3,6.3 31.65,5.08 27.25,10.39 28.65,14.49 24.02,20.05 17.91,18.93 12.31,25.7 15.15,34.02 23.61,35.58 29.22,28.8 27.07,22.49 26.81,22.58 26.63,22.79 26.63,22.79 26.84,22.97 31.66,17.18 31.45,17.01 31.4,17.28 31.45,17.01 31.24,16.83 26.6,22.4 26.81,22.58 26.98,22.37 26.98,22.37 26.23,21.73 28.6,28.69 23.4,34.98 15.56,33.54 12.92,25.82 18.13,19.53 24.24,20.65 29.27,14.61 27.87,10.51 31.87,5.68 37.89,6.78 39.91,12.72 35.91,17.55 31.34,16.71 31.24,16.83 31.45,17.01 31.4,17.28 "
       id="polygon20" /><polygon
       points="87.39,72.12 85.26,65.88 78.92,64.72 74.72,69.8 76.12,73.89 71.29,79.69 65.18,78.57 59.78,85.1 62.52,93.13 70.67,94.62 76.07,88.09 73.97,81.92 73.97,81.92 78.61,76.35 83.18,77.19 "
       id="polygon22" /><polygon
       points="83.29,77.49 87.69,72.17 85.46,65.64 78.82,64.42 74.41,69.74 75.81,73.83 71.18,79.39 65.08,78.28 59.47,85.05 62.31,93.37 70.77,94.92 76.38,88.15 74.23,81.83 73.97,81.92 73.79,82.13 73.79,82.13 74,82.31 78.82,76.53 78.61,76.35 78.56,76.62 78.61,76.35 78.4,76.18 73.76,81.75 73.97,81.92 74.14,81.71 74.14,81.71 73.39,81.09 75.77,88.03 70.56,94.32 62.72,92.89 60.09,85.16 65.29,78.87 71.4,79.99 76.43,73.95 75.03,69.85 79.03,65.02 85.05,66.13 87.08,72.06 83.07,76.89 78.5,76.05 78.4,76.18 78.61,76.35 78.56,76.62 "
       id="polygon24" /><polygon
       points="59.29,35.96 63.17,34.65 78.53,16.49 75.3,13.76 59.94,31.92 "
       id="polygon26" /><path
       d="m 50.21,17.65 h -2 c -0.37,0 -0.68,0.3 -0.68,0.68 v 1.11 h 3.42 C 50.5,18.98 50.21,18.35 50.21,17.65 m 6.98,0 h -2 c 0,0.7 -0.29,1.33 -0.75,1.78 h 3.42 v -1.11 c 0,-0.37 -0.3,-0.67 -0.67,-0.67"
       id="path28" /><path
       d="m 57.86,19.43 h -3.42 c -0.45,0.44 -1.06,0.71 -1.74,0.71 -0.68,0 -1.29,-0.27 -1.74,-0.71 h -3.42 v 1.8 c 0,0.37 0.3,0.68 0.68,0.68 h 8.97 c 0.37,0 0.68,-0.3 0.68,-0.68 v -1.8"
       id="path30" /><path
       d="m 52.7,15.89 h 0.02 c 0.97,0 1.75,0.79 1.75,1.76 0,0.97 -0.79,1.76 -1.76,1.76 -0.97,0 -1.76,-0.79 -1.76,-1.76 -0.01,-0.97 0.78,-1.76 1.75,-1.76 m 0,-0.73 c -1.38,0 -2.49,1.11 -2.49,2.49 v 0 c 0,0.7 0.29,1.33 0.75,1.78 h 3.48 c 0.46,-0.45 0.75,-1.08 0.75,-1.78 v 0 c 0,-1.38 -1.11,-2.49 -2.49,-2.49"
       id="path32" /><path
       d="m 54.44,19.43 h -3.48 c 0.45,0.44 1.06,0.71 1.74,0.71 0.68,0 1.3,-0.27 1.74,-0.71"
       id="path34" /><g
       id="g44"><defs
         id="defs37"><polyline
           id="a"
           points="50.94,15.89 54.46,15.89 54.46,19.41 50.94,19.41 50.94,15.89    " /></defs><clipPath
         id="c"><use
           xlink:href="#a"
           overflow="visible"
           id="use39" /></clipPath><path
         class="st1"
         d="M 52.71,15.89 H 52.7 c -0.97,0 -1.75,0.79 -1.75,1.76 0,0.97 0.79,1.76 1.76,1.76 0.97,0 1.76,-0.79 1.76,-1.76 -0.01,-0.97 -0.79,-1.76 -1.76,-1.76"
         clip-path="url(#c)"
         id="path42" /></g></g></svg>
